<svg width="280" height="25" viewBox="0 0 280 25" fill="none" xmlns="http://www.w3.org/2000/svg">
<path fill-rule="evenodd" clip-rule="evenodd" d="M40.1868 11.6158C40.1868 10.2578 40.4394 9.06566 40.9448 8.03929C41.4659 7.01291 42.1687 6.2234 43.0531 5.67074C43.9374 5.11807 44.9244 4.84174 46.0141 4.84174C46.8827 4.84174 47.6723 5.02333 48.383 5.38651C49.1094 5.74969 49.6779 6.23919 50.0885 6.85501V0.720459H54.1393V18.2478H50.0885V16.3529C49.7095 16.9845 49.1647 17.4898 48.454 17.8688C47.7592 18.2478 46.9459 18.4372 46.0141 18.4372C44.9244 18.4372 43.9374 18.1609 43.0531 17.6082C42.1687 17.0398 41.4659 16.2424 40.9448 15.216C40.4394 14.1738 40.1868 12.9738 40.1868 11.6158ZM50.0885 11.6395C50.0885 10.6289 49.8043 9.8315 49.2357 9.24725C48.683 8.66301 48.0039 8.37089 47.1985 8.37089C46.3931 8.37089 45.7062 8.66301 45.1376 9.24725C44.5849 9.81571 44.3085 10.6052 44.3085 11.6158C44.3085 12.6264 44.5849 13.4317 45.1376 14.0317C45.7062 14.616 46.3931 14.9081 47.1985 14.9081C48.0039 14.9081 48.683 14.616 49.2357 14.0317C49.8043 13.4475 50.0885 12.6501 50.0885 11.6395Z" fill="#0100CA"/>
<path fill-rule="evenodd" clip-rule="evenodd" d="M12.6733 6.97344C12.6733 7.93665 12.4522 8.82091 12.0101 9.62622C11.5679 10.4157 10.8888 11.0552 9.97285 11.5447C9.05689 12.0343 7.91985 12.279 6.56171 12.279H4.05073V18.2478H0V1.62051H6.56171C7.88826 1.62051 9.00952 1.84947 9.92547 2.30739C10.8414 2.76531 11.5284 3.39692 11.9864 4.20223C12.4443 5.00754 12.6733 5.93128 12.6733 6.97344ZM6.25376 9.05777C7.02758 9.05777 7.604 8.87618 7.98302 8.513C8.36203 8.14982 8.55154 7.63664 8.55154 6.97344C8.55154 6.31025 8.36203 5.79706 7.98302 5.43388C7.604 5.0707 7.02758 4.88911 6.25376 4.88911H4.05073V9.05777H6.25376Z" fill="#0100CA"/>
<path d="M20.6095 5.52862C19.8989 5.93917 19.3067 6.50762 18.8329 7.23398V5.03123H14.7822V18.2478H18.8329V12.1132C18.8329 11.0237 19.0856 10.2657 19.5909 9.83939C20.0963 9.39726 20.8543 9.1762 21.865 9.1762H22.9784V4.88911C22.1098 4.88911 21.3202 5.10228 20.6095 5.52862Z" fill="#0100CA"/>
<path fill-rule="evenodd" clip-rule="evenodd" d="M24.8672 8.03929C24.3618 9.06566 24.1091 10.2578 24.1091 11.6158C24.1091 12.9738 24.3618 14.1738 24.8672 15.216C25.3883 16.2424 26.0911 17.0398 26.9754 17.6082C27.8598 18.1609 28.8389 18.4372 29.9128 18.4372C30.8445 18.4372 31.6579 18.2478 32.3527 17.8688C33.0634 17.4898 33.6161 16.9924 34.0109 16.3766V18.2478H38.0616V5.03123H34.0109V6.90238C33.6319 6.28656 33.0871 5.78916 32.3764 5.41019C31.6815 5.03123 30.8682 4.84174 29.9365 4.84174C28.8468 4.84174 27.8598 5.11807 26.9754 5.67074C26.0911 6.2234 25.3883 7.01291 24.8672 8.03929ZM33.1581 9.24725C33.7267 9.8315 34.0109 10.6289 34.0109 11.6395C34.0109 12.6501 33.7267 13.4475 33.1581 14.0317C32.6054 14.616 31.9263 14.9081 31.1209 14.9081C30.3155 14.9081 29.6285 14.616 29.06 14.0317C28.5073 13.4317 28.2309 12.6264 28.2309 11.6158C28.2309 10.6052 28.5073 9.81571 29.06 9.24725C29.6285 8.66301 30.3155 8.37089 31.1209 8.37089C31.9263 8.37089 32.6054 8.66301 33.1581 9.24725Z" fill="#0100CA"/>
<path fill-rule="evenodd" clip-rule="evenodd" d="M69.4589 12.6106L69.459 12.6093H70.9117C71.0162 13.5857 71.2838 14.4625 71.7143 15.2397C72.2828 16.2661 73.0724 17.0556 74.0831 17.6082C75.0938 18.1609 76.2467 18.4372 77.5416 18.4372C78.6155 18.4372 79.5867 18.2399 80.4553 17.8451C81.3239 17.4503 82.0424 16.9056 82.611 16.2108C83.1094 15.6182 83.4756 14.9623 83.7098 14.2433H79.294C78.8796 14.8444 78.2481 15.145 77.3995 15.145C76.7204 15.145 76.144 14.9318 75.6702 14.5054C75.2122 14.0633 74.9517 13.4317 74.8885 12.6106H84.0559C84.1033 12.2 84.127 11.8053 84.127 11.4263C84.127 10.0999 83.8428 8.93934 83.2742 7.94455C82.7215 6.94976 81.9477 6.18392 80.9528 5.64705C79.9578 5.11018 78.8208 4.84174 77.5416 4.84174C76.2309 4.84174 75.0701 5.11807 74.0594 5.67074C73.0487 6.2234 72.2591 7.01291 71.6906 8.03929C71.3166 8.73373 71.0691 9.50769 70.9482 10.3612H69.4643C69.3504 9.46902 69.088 8.66349 68.6771 7.94455C68.1244 6.94976 67.3506 6.18392 66.3557 5.64705C65.3607 5.11018 64.2237 4.84174 62.9445 4.84174C61.6338 4.84174 60.473 5.11807 59.4623 5.67074C58.4516 6.2234 57.662 7.01291 57.0935 8.03929C56.5407 9.06566 56.2644 10.2657 56.2644 11.6395C56.2644 13.0133 56.5486 14.2133 57.1172 15.2397C57.6857 16.2661 58.4753 17.0556 59.486 17.6082C60.4967 18.1609 61.6496 18.4372 62.9445 18.4372C64.0184 18.4372 64.9896 18.2399 65.8582 17.8451C66.7268 17.4503 67.4453 16.9056 68.0139 16.2108C68.5123 15.6182 68.8786 14.9623 69.1127 14.2433H64.6969C64.2825 14.8444 63.651 15.145 62.8024 15.145C62.1233 15.145 61.5469 14.9318 61.0731 14.5054C60.6152 14.0633 60.3546 13.4317 60.2914 12.6106H69.4589ZM65.3844 10.3605C65.3844 9.6657 65.1476 9.11303 64.6738 8.70248C64.2 8.29193 63.6078 8.08666 62.8971 8.08666C62.2181 8.08666 61.6417 8.28404 61.1679 8.6788C60.7099 9.07356 60.4257 9.63412 60.3151 10.3605H65.3844ZM79.9815 10.3605C79.9815 9.6657 79.7447 9.11303 79.2709 8.70248C78.7971 8.29193 78.2049 8.08666 77.4942 8.08666C76.8152 8.08666 76.2388 8.28404 75.765 8.6788C75.307 9.07356 75.0228 9.63412 74.9122 10.3605H79.9815Z" fill="#0100CA"/>
<path fill-rule="evenodd" clip-rule="evenodd" d="M90.3147 6.90238C90.7095 6.28656 91.2543 5.78916 91.9492 5.41019C92.6441 5.03123 93.4574 4.84174 94.3891 4.84174C95.4788 4.84174 96.4658 5.11807 97.3502 5.67074C98.2346 6.2234 98.9294 7.01291 99.4348 8.03929C99.9559 9.06566 100.216 10.2578 100.216 11.6158C100.216 12.9738 99.9559 14.1738 99.4348 15.216C98.9294 16.2424 98.2346 17.0398 97.3502 17.6082C96.4658 18.1609 95.4788 18.4372 94.3891 18.4372C93.4732 18.4372 92.6599 18.2478 91.9492 17.8688C91.2543 17.4898 90.7095 17.0003 90.3147 16.4003V24.5481H86.264V5.03123H90.3147V6.90238ZM96.0947 11.6158C96.0947 10.6052 95.8104 9.81571 95.2419 9.24725C94.6892 8.66301 94.0022 8.37089 93.181 8.37089C92.3756 8.37089 91.6886 8.66301 91.1201 9.24725C90.5674 9.8315 90.291 10.6289 90.291 11.6395C90.291 12.6501 90.5674 13.4475 91.1201 14.0317C91.6886 14.616 92.3756 14.9081 93.181 14.9081C93.9864 14.9081 94.6734 14.616 95.2419 14.0317C95.8104 13.4317 96.0947 12.6264 96.0947 11.6158Z" fill="#0100CA"/>
<path d="M126.194 1.62051V18.2478H122.143V8.27614L118.424 18.2478H115.155L111.412 8.25246V18.2478H107.362V1.62051H112.147L116.813 13.1317L121.432 1.62051H126.194Z" fill="#0100CA"/>
<path fill-rule="evenodd" clip-rule="evenodd" d="M128.301 11.6158C128.301 10.2578 128.554 9.06566 129.059 8.03929C129.581 7.01291 130.283 6.2234 131.168 5.67074C132.052 5.11807 133.039 4.84174 134.129 4.84174C135.061 4.84174 135.874 5.03123 136.569 5.41019C137.279 5.78916 137.824 6.28656 138.203 6.90238V5.03123H142.254V18.2478H138.203V16.3766C137.808 16.9924 137.256 17.4898 136.545 17.8688C135.85 18.2478 135.037 18.4372 134.105 18.4372C133.031 18.4372 132.052 18.1609 131.168 17.6082C130.283 17.0398 129.581 16.2424 129.059 15.216C128.554 14.1738 128.301 12.9738 128.301 11.6158ZM138.203 11.6395C138.203 10.6289 137.919 9.8315 137.35 9.24725C136.798 8.66301 136.119 8.37089 135.313 8.37089C134.508 8.37089 133.821 8.66301 133.252 9.24725C132.7 9.81571 132.423 10.6052 132.423 11.6158C132.423 12.6264 132.7 13.4317 133.252 14.0317C133.821 14.616 134.508 14.9081 135.313 14.9081C136.119 14.9081 136.798 14.616 137.35 14.0317C137.919 13.4475 138.203 12.6501 138.203 11.6395Z" fill="#0100CA"/>
<path d="M153.159 4.88911C154.675 4.88911 155.891 5.39441 156.807 6.40499C157.723 7.39978 158.181 8.77354 158.181 10.5263V18.2478H154.154V11.071C154.154 10.1868 153.925 9.4999 153.467 9.0104C153.009 8.5209 152.393 8.27614 151.619 8.27614C150.845 8.27614 150.229 8.5209 149.771 9.0104C149.313 9.4999 149.084 10.1868 149.084 11.071V18.2478H145.034V0.720459H149.084V6.80764C149.495 6.2234 150.056 5.75758 150.766 5.41019C151.477 5.06281 152.274 4.88911 153.159 4.88911Z" fill="#0100CA"/>
<path fill-rule="evenodd" clip-rule="evenodd" d="M160.19 11.6158C160.19 10.2578 160.443 9.06566 160.948 8.03929C161.469 7.01291 162.172 6.2234 163.056 5.67074C163.941 5.11807 164.928 4.84174 166.018 4.84174C166.949 4.84174 167.763 5.03123 168.457 5.41019C169.168 5.78916 169.713 6.28656 170.092 6.90238V5.03123H174.143V18.2478H170.092V16.3766C169.697 16.9924 169.144 17.4898 168.434 17.8688C167.739 18.2478 166.926 18.4372 165.994 18.4372C164.92 18.4372 163.941 18.1609 163.056 17.6082C162.172 17.0398 161.469 16.2424 160.948 15.216C160.443 14.1738 160.19 12.9738 160.19 11.6158ZM170.092 11.6395C170.092 10.6289 169.808 9.8315 169.239 9.24725C168.686 8.66301 168.007 8.37089 167.202 8.37089C166.397 8.37089 165.71 8.66301 165.141 9.24725C164.588 9.81571 164.312 10.6052 164.312 11.6158C164.312 12.6264 164.588 13.4317 165.141 14.0317C165.71 14.616 166.397 14.9081 167.202 14.9081C168.007 14.9081 168.686 14.616 169.239 14.0317C169.808 13.4475 170.092 12.6501 170.092 11.6395Z" fill="#0100CA"/>
<path fill-rule="evenodd" clip-rule="evenodd" d="M176.268 11.6158C176.268 10.2578 176.52 9.06566 177.026 8.03929C177.547 7.01291 178.25 6.2234 179.134 5.67074C180.018 5.11807 181.005 4.84174 182.095 4.84174C182.964 4.84174 183.753 5.02333 184.464 5.38651C185.19 5.74969 185.759 6.23919 186.17 6.85501V0.720459H190.22V18.2478H186.17V16.3529C185.791 16.9845 185.246 17.4898 184.535 17.8688C183.84 18.2478 183.027 18.4372 182.095 18.4372C181.005 18.4372 180.018 18.1609 179.134 17.6082C178.25 17.0398 177.547 16.2424 177.026 15.216C176.52 14.1738 176.268 12.9738 176.268 11.6158ZM186.17 11.6395C186.17 10.6289 185.885 9.8315 185.317 9.24725C184.764 8.66301 184.085 8.37089 183.28 8.37089C182.474 8.37089 181.787 8.66301 181.219 9.24725C180.666 9.81571 180.39 10.6052 180.39 11.6158C180.39 12.6264 180.666 13.4317 181.219 14.0317C181.787 14.616 182.474 14.9081 183.28 14.9081C184.085 14.9081 184.764 14.616 185.317 14.0317C185.885 13.4475 186.17 12.6501 186.17 11.6395Z" fill="#0100CA"/>
<path fill-rule="evenodd" clip-rule="evenodd" d="M205.611 11.4263C205.611 11.8053 205.587 12.2 205.54 12.6106H196.372C196.436 13.4317 196.696 14.0633 197.154 14.5054C197.628 14.9318 198.204 15.145 198.883 15.145C199.732 15.145 200.364 14.8444 200.778 14.2433H205.194C204.96 14.9623 204.593 15.6182 204.095 16.2108C203.526 16.9056 202.808 17.4503 201.939 17.8451C201.071 18.2399 200.099 18.4372 199.026 18.4372C197.731 18.4372 196.578 18.1609 195.567 17.6082C194.556 17.0556 193.767 16.2661 193.198 15.2397C192.63 14.2133 192.345 13.0133 192.345 11.6395C192.345 10.2657 192.622 9.06566 193.174 8.03929C193.743 7.01291 194.533 6.2234 195.543 5.67074C196.554 5.11807 197.715 4.84174 199.026 4.84174C200.305 4.84174 201.442 5.11018 202.437 5.64705C203.432 6.18392 204.205 6.94976 204.758 7.94455C205.327 8.93934 205.611 10.0999 205.611 11.4263ZM201.465 10.3605C201.465 9.6657 201.229 9.11303 200.755 8.70248C200.281 8.29193 199.689 8.08666 198.978 8.08666C198.299 8.08666 197.723 8.28404 197.249 8.6788C196.791 9.07356 196.507 9.63412 196.396 10.3605H201.465Z" fill="#0100CA"/>
<path d="M206.973 14.2433H211.008C211.106 14.5529 211.296 14.814 211.58 15.0265C211.959 15.3108 212.425 15.4529 212.977 15.4529C213.483 15.4529 213.87 15.3581 214.138 15.1686C214.422 14.9634 214.564 14.7028 214.564 14.387C214.564 14.008 214.367 13.7317 213.972 13.558C213.577 13.3685 212.938 13.1633 212.053 12.9422C211.106 12.7211 210.316 12.4922 209.685 12.2553C209.053 12.0027 208.508 11.6158 208.05 11.0947C207.592 10.5579 207.363 9.83939 207.363 8.93934C207.363 8.1814 207.568 7.49452 207.979 6.8787C208.405 6.24708 209.021 5.74969 209.827 5.38651C210.648 5.02333 211.619 4.84174 212.74 4.84174C214.399 4.84174 215.701 5.25229 216.649 6.07339C217.612 6.89449 218.165 7.98402 218.307 9.34199H214.564C214.501 8.88407 214.296 8.52089 213.949 8.25246C213.617 7.98402 213.175 7.84981 212.622 7.84981C212.148 7.84981 211.785 7.94455 211.532 8.13403C211.28 8.30773 211.153 8.55248 211.153 8.86828C211.153 9.24725 211.351 9.53148 211.745 9.72096C212.156 9.91045 212.788 10.0999 213.641 10.2894C214.62 10.5421 215.417 10.7947 216.033 11.0474C216.649 11.2842 217.186 11.679 217.644 12.2316C218.118 12.7685 218.362 13.4949 218.378 14.4107C218.378 15.1844 218.157 15.8792 217.715 16.495C217.289 17.0951 216.665 17.5688 215.844 17.9162C215.038 18.2635 214.099 18.4372 213.025 18.4372C211.872 18.4372 210.845 18.2399 209.945 17.8451C209.045 17.4503 208.334 16.9135 207.813 16.2345C207.36 15.6304 207.08 14.9667 206.973 14.2433Z" fill="#0100CA"/>
<path d="M231.495 5.78574C230.684 5.18799 229.695 4.88911 228.529 4.88911C227.645 4.88911 226.847 5.06281 226.137 5.41019C225.426 5.75758 224.865 6.2234 224.455 6.80764V0.720459H220.404V18.2478H224.455V11.071C224.455 10.1868 224.684 9.4999 225.142 9.0104C225.6 8.5209 226.216 8.27614 226.989 8.27614C227.763 8.27614 228.379 8.5209 228.837 9.0104C229.295 9.4999 229.524 10.1868 229.524 11.071V18.2478H233.551V13.3247L231.495 5.78574Z" fill="#0100CA"/>
<path fill-rule="evenodd" clip-rule="evenodd" d="M254.904 11.6053C254.904 10.2496 255.157 9.05938 255.663 8.03473C256.184 7.01008 256.887 6.22188 257.772 5.67015C258.657 5.11841 259.645 4.84254 260.735 4.84254C261.668 4.84254 262.482 5.03171 263.177 5.41004C263.888 5.78838 264.433 6.28494 264.812 6.89973V5.03171H268.866V18.2261H264.812V16.3581C264.417 16.9729 263.864 17.4694 263.153 17.8478C262.458 18.2261 261.644 18.4153 260.712 18.4153C259.637 18.4153 258.657 18.1394 257.772 17.5877C256.887 17.0202 256.184 16.2241 255.663 15.1994C255.157 14.159 254.904 12.9609 254.904 11.6053ZM264.812 11.6289C264.812 10.62 264.528 9.82393 263.959 9.24067C263.406 8.65741 262.727 8.36577 261.921 8.36577C261.115 8.36577 260.427 8.65741 259.858 9.24067C259.305 9.80817 259.029 10.5964 259.029 11.6053C259.029 12.6141 259.305 13.4181 259.858 14.0171C260.427 14.6004 261.115 14.892 261.921 14.892C262.727 14.892 263.406 14.6004 263.959 14.0171C264.528 13.4339 264.812 12.6378 264.812 11.6289Z" fill="#0100CA"/>
<path d="M254.164 5.03171L250.585 18.2261H246.105L244.019 9.66629L241.862 18.2261H237.406L233.803 5.03171H237.856L239.729 14.4664L241.957 5.03171H246.247L248.499 14.4191L250.348 5.03171H254.164Z" fill="#0100CA"/>
<path d="M277.63 5.52827C276.918 5.93813 276.326 6.50563 275.852 7.23077V5.03171H271.798V18.2261H275.852V12.1018C275.852 11.0141 276.105 10.2574 276.61 9.83181C277.116 9.39043 277.875 9.16973 278.886 9.16973H280V4.88983C279.131 4.88983 278.341 5.10265 277.63 5.52827Z" fill="#0100CA"/>
</svg>
